<?xml version="1.0" encoding="utf-8"?>
<!-- Generator: Adobe Illustrator 27.8.1, SVG Export Plug-In . SVG Version: 6.00 Build 0)  -->
<svg version="1.1" id="Camada_1" xmlns="http://www.w3.org/2000/svg" xmlns:xlink="http://www.w3.org/1999/xlink" x="0px" y="0px"
	 viewBox="0 0 433 205" style="enable-background:new 0 0 433 205;" xml:space="preserve">
<style type="text/css">
	.st0{fill:#FFFFFF;}
	.st1{fill-rule:evenodd;clip-rule:evenodd;fill:#FFFFFF;}
</style>
<path class="st0" d="M0.7,58V1.3h27.4c5.3,0,9.9,0.9,13.8,2.6c3.9,1.7,6.9,4.2,9,7.4c2.1,3.2,3.2,7,3.2,11.3S53,30.8,50.9,34
	s-5.1,5.7-9,7.4C38,43.2,33.4,44,28.1,44H11.4l8.5-8.2V58H0.7z M19.9,38l-8.5-8.7h15.5c2.7,0,4.6-0.6,5.9-1.8c1.3-1.2,2-2.8,2-4.9
	c0-2.1-0.7-3.7-2-4.9c-1.2-1.2-3.2-1.8-5.9-1.8H11.4l8.5-8.7V38z"/>
<path class="st0" d="M60.4,58V1.3h27.4c5.3,0,9.9,0.9,13.8,2.6c3.9,1.7,6.9,4.2,9,7.4c2.1,3.2,3.2,7,3.2,11.3s-1.1,8.1-3.2,11.3
	c-2.1,3.1-5.1,5.5-9,7.2c-3.9,1.7-8.4,2.5-13.8,2.5H71l8.5-7.9V58H60.4z M94.5,58l-14-20.6h20.3L115,58H94.5z M79.6,38L71,29.3h15.5
	c2.7,0,4.6-0.6,5.9-1.8c1.3-1.2,2-2.8,2-4.9c0-2.1-0.7-3.7-2-4.9c-1.2-1.2-3.2-1.8-5.9-1.8H71l8.5-8.7V38z"/>
<path class="st0" d="M121,58V1.3h19.2V58H121z"/>
<path class="st0" d="M149.5,58V1.3h15.8l22.8,37h-8.3l22.1-37h15.8l0.2,56.7h-17.5l-0.2-30.4h2.8l-15.1,25.3h-8.5l-15.8-25.3h3.4V58
	H149.5z"/>
<path class="st0" d="M244.7,22.3h25.4v13.8h-25.4V22.3z M246,43.5h28.5V58h-47.4V1.3h46.3v14.4H246V43.5z"/>
<path class="st0" d="M281.9,58V1.3h19.2V58H281.9z"/>
<path class="st0" d="M310.3,58V1.3h27.4c5.3,0,9.9,0.9,13.8,2.6c3.9,1.7,6.9,4.2,9,7.4c2.1,3.2,3.2,7,3.2,11.3s-1.1,8.1-3.2,11.3
	c-2.1,3.1-5.1,5.5-9,7.2c-3.9,1.7-8.4,2.5-13.8,2.5H321l8.5-7.9V58H310.3z M344.4,58l-14-20.6h20.3L365,58H344.4z M329.5,38
	l-8.5-8.7h15.5c2.7,0,4.6-0.6,5.9-1.8c1.3-1.2,2-2.8,2-4.9c0-2.1-0.7-3.7-2-4.9c-1.2-1.2-3.2-1.8-5.9-1.8H321l8.5-8.7V38z"/>
<path class="st0" d="M400.9,59.2c-4.6,0-8.9-0.7-12.9-2.2c-3.9-1.5-7.3-3.5-10.2-6.2c-2.9-2.7-5.1-5.9-6.8-9.5
	c-1.6-3.6-2.4-7.6-2.4-11.8c0-4.3,0.8-8.3,2.4-11.8c1.6-3.6,3.9-6.7,6.8-9.4c2.9-2.7,6.3-4.8,10.2-6.2c4-1.5,8.2-2.2,12.9-2.2
	c4.7,0,9,0.7,12.9,2.2c3.9,1.5,7.3,3.5,10.2,6.2c2.9,2.6,5.1,5.8,6.7,9.4c1.6,3.6,2.4,7.5,2.4,11.8c0,4.3-0.8,8.2-2.4,11.8
	c-1.6,3.6-3.8,6.8-6.7,9.5c-2.9,2.6-6.3,4.7-10.2,6.2C409.8,58.5,405.5,59.2,400.9,59.2z M400.9,43.8c1.8,0,3.4-0.3,5-1
	c1.6-0.6,2.9-1.6,4.1-2.8c1.2-1.2,2.1-2.7,2.8-4.5c0.7-1.8,1-3.8,1-6s-0.3-4.2-1-5.9c-0.7-1.8-1.6-3.3-2.8-4.5
	c-1.1-1.2-2.5-2.2-4.1-2.8c-1.5-0.6-3.2-1-5-1c-1.8,0-3.5,0.3-5,1c-1.5,0.6-2.9,1.6-4.1,2.8c-1.1,1.2-2,2.7-2.7,4.5
	c-0.7,1.7-1,3.7-1,5.9s0.3,4.2,1,6c0.7,1.7,1.5,3.2,2.7,4.5c1.2,1.2,2.5,2.1,4.1,2.8C397.4,43.5,399.1,43.8,400.9,43.8z"/>
<path class="st1" d="M388,72.4c-24.8,0-45,20.1-45,45c0,24.8,20.1,45,45,45c24.8,0,45-20.1,45-45C433,92.6,412.9,72.4,388,72.4z
	 M388,158.1c-22.5,0-40.7-18.2-40.7-40.7c0-22.5,18.2-40.7,40.7-40.7c22.5,0,40.7,18.2,40.7,40.7C428.7,139.9,410.5,158.1,388,158.1
	z"/>
<path class="st1" d="M388,157.7c22.3,0,40.3-18,40.3-40.3c0-22.3-18-40.3-40.3-40.3c-22.3,0-40.3,18-40.3,40.3
	C347.7,139.7,365.8,157.7,388,157.7z M388,158.1c22.5,0,40.7-18.2,40.7-40.7c0-22.5-18.2-40.7-40.7-40.7s-40.7,18.2-40.7,40.7
	C347.3,139.9,365.5,158.1,388,158.1z"/>
<path class="st0" d="M388,77.1c-11.2,0-20.2,9.1-20.2,20.2c0,11.2,9.1,20.2,20.2,20.2c11.2,0,20.3-9.1,20.3-20.2
	C408.3,86.2,399.2,77.1,388,77.1z M388,103.2c-3.2,0-5.8-2.6-5.8-5.8c0-3.2,2.6-5.8,5.8-5.8c3.2,0,5.8,2.6,5.8,5.8
	C393.8,100.6,391.2,103.2,388,103.2z"/>
<path class="st0" d="M368.6,137.1c0-14.6,13.1-19.2,19.6-19.6c-17-3.8-48.3-6-37.7,15.6c10.6,21.7,30.2,25.5,38.7,24.7
	C382.3,156.9,368.6,151.6,368.6,137.1z"/>
<path class="st0" d="M361.9,148.5c-1-0.8-4.7-4.9-6.4-6.8l-0.6-0.8v-1c0.8,0.4,2.6,1.3,3.4,1.6c1,0.4,4.2,2.4,5.2,3.4
	c0.8,0.8,3.9,3.8,5.4,5.2l0.8,3.6l-2.2-1.4l-1.2-0.8C365.3,150.8,362.9,149.3,361.9,148.5z"/>
<path class="st0" d="M387.8,76.9l-2.7,15.4c-1.7,1-2.9,2.9-2.9,5c0,1.4,0.5,2.7,1.4,3.8l-2.8,15.9l-32.3,8.8
	C345.9,111.4,350.1,81.4,387.8,76.9z"/>
<path class="st0" d="M355.7,92.9c9.3-13.2,24.5-16.2,30.9-16h0.2l0.6,0.4l-36.3,42.1l-2.8,5.6C346.9,119.8,346.4,106.1,355.7,92.9z"
	/>
<path class="st0" d="M393.8,137.1c0,3.2-2.6,5.8-5.8,5.8s-5.8-2.6-5.8-5.8s2.6-5.8,5.8-5.8S393.8,133.8,393.8,137.1z"/>
<path class="st0" d="M0.7,160.4v-86h40.7c7.9,0,14.7,1.3,20.4,3.9c5.8,2.6,10.3,6.4,13.4,11.3c3.1,4.8,4.7,10.6,4.7,17.2
	c0,6.6-1.6,12.4-4.7,17.2c-3.1,4.8-7.6,8.6-13.4,11.3c-5.7,2.6-12.5,3.9-20.4,3.9H16.5l12.7-12.4v33.6H0.7z M29.2,130.1l-12.7-13.2
	h23.1c3.9,0,6.8-0.9,8.7-2.7c1.9-1.8,2.9-4.3,2.9-7.4s-1-5.6-2.9-7.4c-1.9-1.8-4.7-2.7-8.7-2.7H16.5l12.7-13.2V130.1z"/>
<path class="st0" d="M73.6,160.4l36.9-86h28l36.9,86h-29.5l-27.3-72.3h11.1l-27.3,72.3H73.6z M95.6,145.4l7.2-20.9h38.9l7.2,20.9
	H95.6z"/>
<path class="st0" d="M216,162.4c-7.1,0-13.9-0.8-20.5-2.5c-6.6-1.6-12-3.8-16.3-6.4l9.2-21.1c4,2.4,8.5,4.3,13.4,5.8
	c5,1.4,9.8,2.1,14.5,2.1c2.7,0,4.9-0.2,6.4-0.5c1.6-0.4,2.8-0.9,3.5-1.6c0.7-0.7,1.1-1.6,1.1-2.6c0-1.6-0.8-2.8-2.5-3.7
	c-1.7-0.9-3.9-1.6-6.8-2.2c-2.7-0.7-5.8-1.3-9.1-2c-3.3-0.7-6.6-1.7-10-2.8c-3.3-1.1-6.4-2.7-9.2-4.5c-2.7-1.9-5-4.3-6.6-7.4
	c-1.7-3.1-2.5-7-2.5-11.6c0-5.3,1.4-10.2,4.3-14.5c3-4.4,7.4-7.9,13.2-10.6c5.9-2.6,13.2-3.9,21.9-3.9c5.7,0,11.3,0.6,16.9,1.8
	c5.6,1.2,10.5,3.1,15,5.7l-8.6,21c-4.2-2.1-8.2-3.7-12.2-4.8c-3.9-1.1-7.6-1.6-11.4-1.6c-2.7,0-4.9,0.2-6.5,0.7
	c-1.6,0.5-2.8,1.1-3.5,2c-0.6,0.8-1,1.7-1,2.7c0,1.5,0.8,2.7,2.5,3.6c1.7,0.8,3.9,1.5,6.6,2.1c2.8,0.6,5.9,1.2,9.2,1.8
	c3.4,0.7,6.7,1.6,10,2.7c3.3,1.1,6.3,2.7,9.1,4.5c2.8,1.9,5.1,4.3,6.8,7.4c1.7,3,2.5,6.8,2.5,11.3c0,5.2-1.5,10.1-4.5,14.5
	c-2.9,4.3-7.2,7.9-13,10.6C232,161.1,224.8,162.4,216,162.4z"/>
<path class="st0" d="M297.5,162.4c-7.1,0-13.9-0.8-20.5-2.5c-6.6-1.6-12-3.8-16.3-6.4l9.2-21.1c4,2.4,8.5,4.3,13.4,5.8
	c5,1.4,9.8,2.1,14.5,2.1c2.7,0,4.9-0.2,6.4-0.5c1.6-0.4,2.8-0.9,3.5-1.6c0.7-0.7,1.1-1.6,1.1-2.6c0-1.6-0.8-2.8-2.5-3.7
	c-1.7-0.9-3.9-1.6-6.8-2.2c-2.7-0.7-5.8-1.3-9.1-2c-3.3-0.7-6.6-1.7-10-2.8c-3.3-1.1-6.4-2.7-9.2-4.5c-2.7-1.9-4.9-4.3-6.6-7.4
	c-1.7-3.1-2.5-7-2.5-11.6c0-5.3,1.4-10.2,4.3-14.5c3-4.4,7.4-7.9,13.2-10.6c5.9-2.6,13.2-3.9,21.9-3.9c5.7,0,11.4,0.6,16.9,1.8
	c5.6,1.2,10.5,3.1,15,5.7l-8.6,21c-4.2-2.1-8.3-3.7-12.2-4.8c-3.9-1.1-7.6-1.6-11.4-1.6c-2.7,0-4.9,0.2-6.5,0.7
	c-1.6,0.5-2.8,1.1-3.5,2c-0.6,0.8-1,1.7-1,2.7c0,1.5,0.8,2.7,2.5,3.6c1.7,0.8,3.9,1.5,6.6,2.1c2.8,0.6,5.9,1.2,9.2,1.8
	c3.4,0.7,6.7,1.6,10,2.7c3.3,1.1,6.3,2.7,9.1,4.5c2.8,1.9,5.1,4.3,6.8,7.4c1.7,3,2.5,6.8,2.5,11.3c0,5.2-1.5,10.1-4.5,14.5
	c-2.9,4.3-7.2,7.9-13,10.6C313.6,161.1,306.3,162.4,297.5,162.4z"/>
<path class="st0" d="M3.9,191.4h12.7v2.9H3.9V191.4z M4.2,203.8H0.7v-23.6h17.4v2.9H4.2V203.8z"/>
<path class="st0" d="M39.7,203.8v-23.6h3.5v23.6H39.7z"/>
<path class="st0" d="M74.5,204.1c-1.9,0-3.7-0.3-5.4-0.8c-1.7-0.6-3.1-1.3-4-2.2l1.3-2.6c0.9,0.8,2.1,1.4,3.6,2s3,0.8,4.5,0.8
	c1.4,0,2.6-0.2,3.5-0.5c0.9-0.3,1.5-0.7,2-1.3c0.4-0.6,0.6-1.2,0.6-1.9c0-0.8-0.3-1.5-0.8-2c-0.5-0.5-1.3-0.9-2.1-1.2
	c-0.9-0.3-1.8-0.6-2.9-0.8c-1.1-0.2-2.1-0.5-3.2-0.8c-1.1-0.3-2-0.7-2.9-1.2c-0.9-0.5-1.6-1.1-2.1-1.9c-0.5-0.8-0.8-1.8-0.8-3.1
	c0-1.2,0.3-2.3,1-3.3c0.7-1,1.7-1.9,3.1-2.5c1.4-0.6,3.2-0.9,5.3-0.9c1.4,0,2.8,0.2,4.3,0.5c1.4,0.4,2.6,0.9,3.7,1.6l-1.2,2.7
	c-1.1-0.7-2.2-1.2-3.3-1.4c-1.2-0.3-2.3-0.5-3.4-0.5c-1.4,0-2.5,0.2-3.4,0.5c-0.9,0.3-1.5,0.8-2,1.3c-0.4,0.6-0.6,1.2-0.6,1.9
	c0,0.8,0.3,1.5,0.8,2c0.6,0.5,1.3,0.9,2.1,1.2c0.9,0.3,1.9,0.6,2.9,0.8c1.1,0.2,2.1,0.5,3.2,0.8c1.1,0.3,2.1,0.7,2.9,1.1
	c0.9,0.5,1.6,1.1,2.1,1.9s0.8,1.8,0.8,3c0,1.2-0.3,2.3-1,3.3c-0.7,1-1.7,1.8-3.2,2.5C78.4,203.8,76.6,204.1,74.5,204.1z"/>
<path class="st0" d="M105.8,203.8v-23.6h3.5v23.6H105.8z"/>
<path class="st0" d="M144.5,204.1c-1.9,0-3.6-0.3-5.2-0.9c-1.6-0.6-3-1.4-4.1-2.5c-1.2-1.1-2.1-2.4-2.7-3.8c-0.7-1.5-1-3.1-1-4.8
	c0-1.7,0.3-3.3,1-4.8c0.7-1.5,1.6-2.7,2.7-3.8c1.2-1.1,2.6-2,4.1-2.6c1.6-0.6,3.3-0.9,5.2-0.9c1.9,0,3.6,0.3,5.2,0.9
	c1.6,0.6,3,1.4,4.1,2.5c1.2,1.1,2.1,2.3,2.7,3.8c0.7,1.5,1,3.1,1,4.8c0,1.8-0.3,3.4-1,4.8c-0.6,1.5-1.5,2.7-2.7,3.8
	c-1.2,1.1-2.6,1.9-4.1,2.5C148.1,203.8,146.4,204.1,144.5,204.1z M144.5,201.1c1.4,0,2.6-0.2,3.8-0.7c1.2-0.4,2.2-1.1,3-1.9
	c0.9-0.8,1.5-1.8,2-2.9c0.5-1.1,0.7-2.3,0.7-3.6c0-1.3-0.2-2.5-0.7-3.6c-0.5-1.1-1.1-2.1-2-2.9c-0.8-0.8-1.9-1.5-3-1.9
	c-1.1-0.4-2.4-0.7-3.8-0.7c-1.4,0-2.7,0.2-3.8,0.7c-1.1,0.4-2.2,1.1-3,1.9c-0.9,0.8-1.5,1.8-2,2.9c-0.5,1.1-0.7,2.3-0.7,3.6
	c0,1.3,0.2,2.5,0.7,3.6c0.5,1.1,1.2,2.1,2,2.9c0.9,0.8,1.9,1.4,3,1.9C141.9,200.9,143.2,201.1,144.5,201.1z"/>
<path class="st0" d="M184.2,203.8v-20.7h-8.4v-2.9h20.4v2.9h-8.4v20.7H184.2z"/>
<path class="st0" d="M219.8,190.4h12.7v2.9h-12.7V190.4z M220.2,200.9h14.3v2.9h-17.9v-23.6H234v2.9h-13.9V200.9z"/>
<path class="st0" d="M256.9,203.8v-23.6h9.6c2.2,0,4,0.3,5.5,1c1.5,0.7,2.7,1.6,3.5,2.8c0.8,1.2,1.2,2.7,1.2,4.4
	c0,1.7-0.4,3.2-1.2,4.4c-0.8,1.2-2,2.1-3.5,2.8c-1.5,0.7-3.4,1-5.5,1h-7.7l1.6-1.6v8.7H256.9z M273.4,203.8l-6.3-8.6h3.8l6.3,8.6
	H273.4z M260.4,195.4l-1.6-1.7h7.6c2.3,0,4-0.5,5.1-1.4c1.2-0.9,1.8-2.3,1.8-3.9c0-1.7-0.6-3-1.8-3.9c-1.1-0.9-2.8-1.4-5.1-1.4h-7.6
	l1.6-1.7V195.4z"/>
<path class="st0" d="M295.4,203.8l11.1-23.6h3.5l11.2,23.6h-3.7l-9.9-21.7h1.4l-9.9,21.7H295.4z M300.2,197.9l0.9-2.7H315l1,2.7
	H300.2z"/>
<path class="st0" d="M341.6,203.8v-23.6h9.6c2.2,0,4,0.3,5.5,1c1.5,0.7,2.7,1.6,3.5,2.8c0.8,1.2,1.2,2.7,1.2,4.4
	c0,1.7-0.4,3.2-1.2,4.4c-0.8,1.2-2,2.2-3.5,2.8c-1.5,0.7-3.4,1-5.5,1h-7.7l1.6-1.6v8.7H341.6z M345.1,195.4l-1.6-1.7h7.6
	c2.3,0,4-0.5,5.1-1.4c1.2-0.9,1.8-2.2,1.8-3.9c0-1.7-0.6-3-1.8-3.9c-1.1-0.9-2.8-1.4-5.1-1.4h-7.6l1.6-1.7V195.4z"/>
<path class="st0" d="M383.3,203.8v-23.6h3.5v23.6H383.3z"/>
<path class="st0" d="M407.2,203.8l11.1-23.6h3.5l11.2,23.6h-3.7l-10-21.7h1.4l-10,21.7H407.2z M411.9,197.9l1-2.7h13.9l1,2.7H411.9z
	"/>
</svg>
