<svg width="433" height="205" viewBox="0 0 433 205" fill="none" xmlns="http://www.w3.org/2000/svg">
<path d="M0.694458 57.9549V1.29508H28.1215C33.4387 1.29508 38.0234 2.15847 41.8757 3.88524C45.7822 5.61202 48.7935 8.09426 50.9095 11.332C53.0255 14.5157 54.0836 18.293 54.0836 22.6639C54.0836 27.0348 53.0255 30.8122 50.9095 33.9959C48.7935 37.1796 45.7822 39.6619 41.8757 41.4426C38.0234 43.1694 33.4387 44.0328 28.1215 44.0328H11.356L19.9015 35.8576V57.9549H0.694458ZM19.9015 37.9621L11.356 29.3012H26.9007C29.5593 29.3012 31.5126 28.7076 32.7605 27.5205C34.0626 26.3333 34.7137 24.7145 34.7137 22.6639C34.7137 20.6134 34.0626 18.9945 32.7605 17.8074C31.5126 16.6202 29.5593 16.0266 26.9007 16.0266H11.356L19.9015 7.36578V37.9621Z" fill="#3D3D3D"/>
<path d="M60.3827 57.9549V1.29508H87.8097C93.1269 1.29508 97.7116 2.15847 101.564 3.88524C105.47 5.61202 108.482 8.09426 110.598 11.332C112.714 14.5157 113.772 18.293 113.772 22.6639C113.772 27.0348 112.714 30.8122 110.598 33.9959C108.482 37.1257 105.47 39.527 101.564 41.1998C97.7116 42.8726 93.1269 43.709 87.8097 43.709H71.0442L79.5897 35.8576V57.9549H60.3827ZM94.4833 57.9549L80.485 37.3145H100.831L114.993 57.9549H94.4833ZM79.5897 37.9621L71.0442 29.3012H86.5889C89.2475 29.3012 91.2008 28.7076 92.4487 27.5205C93.7509 26.3333 94.402 24.7145 94.402 22.6639C94.402 20.6134 93.7509 18.9945 92.4487 17.8074C91.2008 16.6202 89.2475 16.0266 86.5889 16.0266H71.0442L79.5897 7.36578V37.9621Z" fill="#3D3D3D"/>
<path d="M121.025 57.9549V1.29508H140.232V57.9549H121.025Z" fill="#3D3D3D"/>
<path d="M149.478 57.9549V1.29508H165.267L188.055 38.2859H179.753L201.89 1.29508H217.679L217.842 57.9549H200.344L200.181 27.5205H202.948L187.811 52.8555H179.346L163.558 27.5205H166.976V57.9549H149.478Z" fill="#3D3D3D"/>
<path d="M244.708 22.3402H270.1V36.1004H244.708V22.3402ZM246.01 43.5471H274.495V57.9549H227.128V1.29508H273.437V15.7029H246.01V43.5471Z" fill="#3D3D3D"/>
<path d="M281.889 57.9549V1.29508H301.096V57.9549H281.889Z" fill="#3D3D3D"/>
<path d="M310.342 57.9549V1.29508H337.769C343.086 1.29508 347.671 2.15847 351.523 3.88524C355.43 5.61202 358.441 8.09426 360.557 11.332C362.673 14.5157 363.731 18.293 363.731 22.6639C363.731 27.0348 362.673 30.8122 360.557 33.9959C358.441 37.1257 355.43 39.527 351.523 41.1998C347.671 42.8726 343.086 43.709 337.769 43.709H321.004L329.549 35.8576V57.9549H310.342ZM344.443 57.9549L330.444 37.3145H350.791L364.952 57.9549H344.443ZM329.549 37.9621L321.004 29.3012H336.548C339.207 29.3012 341.16 28.7076 342.408 27.5205C343.71 26.3333 344.361 24.7145 344.361 22.6639C344.361 20.6134 343.71 18.9945 342.408 17.8074C341.16 16.6202 339.207 16.0266 336.548 16.0266H321.004L329.549 7.36578V37.9621Z" fill="#3D3D3D"/>
<path d="M400.853 59.25C396.241 59.25 391.954 58.5215 387.994 57.0645C384.087 55.6076 380.696 53.557 377.82 50.9129C374.945 48.2148 372.693 45.0581 371.065 41.4426C369.492 37.8272 368.705 33.888 368.705 29.625C368.705 25.3081 369.492 21.3689 371.065 17.8074C372.693 14.1919 374.945 11.0622 377.82 8.41803C380.696 5.71994 384.087 3.64242 387.994 2.18545C391.954 0.728484 396.241 0 400.853 0C405.519 0 409.805 0.728484 413.712 2.18545C417.618 3.64242 421.009 5.71994 423.885 8.41803C426.76 11.0622 428.985 14.1919 430.558 17.8074C432.186 21.3689 433 25.3081 433 29.625C433 33.888 432.186 37.8272 430.558 41.4426C428.985 45.0581 426.76 48.2148 423.885 50.9129C421.009 53.557 417.618 55.6076 413.712 57.0645C409.805 58.5215 405.519 59.25 400.853 59.25ZM400.853 43.79C402.643 43.79 404.298 43.4662 405.817 42.8186C407.391 42.1711 408.747 41.2538 409.886 40.0666C411.08 38.8255 412.002 37.3415 412.654 35.6148C413.305 33.834 413.63 31.8374 413.63 29.625C413.63 27.4126 413.305 25.443 412.654 23.7162C412.002 21.9354 411.08 20.4515 409.886 19.2643C408.747 18.0232 407.391 17.0789 405.817 16.4314C404.298 15.7838 402.643 15.46 400.853 15.46C399.062 15.46 397.38 15.7838 395.807 16.4314C394.287 17.0789 392.931 18.0232 391.737 19.2643C390.598 20.4515 389.703 21.9354 389.052 23.7162C388.401 25.443 388.075 27.4126 388.075 29.625C388.075 31.8374 388.401 33.834 389.052 35.6148C389.703 37.3415 390.598 38.8255 391.737 40.0666C392.931 41.2538 394.287 42.1711 395.807 42.8186C397.38 43.4662 399.062 43.79 400.853 43.79Z" fill="#3D3D3D"/>
<path d="M428.716 117.403C428.716 139.882 410.493 158.105 388.014 158.105C365.535 158.105 347.312 139.882 347.312 117.403C347.312 94.9238 365.535 76.7011 388.014 76.7011C410.493 76.7011 428.716 94.9238 428.716 117.403Z" fill="white"/>
<path fill-rule="evenodd" clip-rule="evenodd" d="M433 117.403C433 142.248 412.859 162.389 388.014 162.389C363.169 162.389 343.028 142.248 343.028 117.403C343.028 92.5577 363.169 72.4167 388.014 72.4167C412.859 72.4167 433 92.5577 433 117.403ZM388.014 158.105C410.493 158.105 428.716 139.882 428.716 117.403C428.716 94.9239 410.493 76.7011 388.014 76.7011C365.535 76.7011 347.312 94.9239 347.312 117.403C347.312 139.882 365.535 158.105 388.014 158.105Z" fill="#3D3D3D"/>
<path fill-rule="evenodd" clip-rule="evenodd" d="M388.014 157.704C410.271 157.704 428.315 139.66 428.315 117.403C428.315 95.1453 410.271 77.1021 388.014 77.1021C365.756 77.1021 347.713 95.1453 347.713 117.403C347.713 139.66 365.756 157.704 388.014 157.704ZM388.014 158.105C410.493 158.105 428.716 139.882 428.716 117.403C428.716 94.9238 410.493 76.7011 388.014 76.7011C365.535 76.7011 347.312 94.9238 347.312 117.403C347.312 139.882 365.535 158.105 388.014 158.105Z" fill="#3D3D3D"/>
<path d="M408.265 97.3527C408.265 108.537 399.198 117.603 388.014 117.603C376.83 117.603 367.763 108.537 367.763 97.3527C367.763 86.1686 376.83 77.1021 388.014 77.1021C399.198 77.1021 408.265 86.1686 408.265 97.3527Z" fill="#3D3D3D"/>
<path d="M368.565 137.052C368.565 122.455 381.665 117.871 388.214 117.403C371.239 113.593 339.934 111.388 350.52 133.042C361.107 154.696 380.729 158.506 389.217 157.704C382.333 156.902 368.565 151.648 368.565 137.052Z" fill="#3D3D3D"/>
<path d="M361.949 148.481C360.986 147.679 357.27 143.602 355.533 141.663L354.931 140.861V139.859C355.733 140.26 357.538 141.142 358.34 141.463C359.342 141.864 362.55 143.869 363.553 144.872C364.355 145.674 367.496 148.681 368.966 150.085L369.768 153.694L367.563 152.29L366.36 151.488C365.29 150.82 362.911 149.283 361.949 148.481Z" fill="#3D3D3D"/>
<path d="M408.265 137.453C408.265 148.637 399.198 157.704 388.014 157.704C376.83 157.704 367.763 148.637 367.763 137.453C367.763 126.269 376.83 117.202 388.014 117.202C399.198 117.202 408.265 126.269 408.265 137.453Z" fill="white"/>
<path d="M380.796 117.002L387.813 76.9016C350.119 81.3929 345.909 111.388 348.515 125.824L380.796 117.002Z" fill="#3D3D3D"/>
<path d="M355.733 92.9417C365.036 79.7888 380.194 76.7679 386.61 76.9016L386.811 76.9016L387.412 77.3026L351.122 119.408L348.315 125.022C346.911 119.809 346.43 106.095 355.733 92.9417Z" fill="#3D3D3D"/>
<path d="M393.828 97.3526C393.828 100.564 391.225 103.167 388.014 103.167C384.803 103.167 382.199 100.564 382.199 97.3526C382.199 94.1414 384.803 91.5381 388.014 91.5381C391.225 91.5381 393.828 94.1414 393.828 97.3526Z" fill="white"/>
<path d="M393.828 137.052C393.828 140.263 391.225 142.866 388.014 142.866C384.803 142.866 382.199 140.263 382.199 137.052C382.199 133.841 384.803 131.237 388.014 131.237C391.225 131.237 393.828 133.841 393.828 137.052Z" fill="#3D3D3D"/>
<path d="M0.694458 160.422V74.3833H41.3851C49.2736 74.3833 56.0755 75.6944 61.7907 78.3165C67.5864 80.9386 72.0539 84.708 75.1933 89.6245C78.3326 94.4591 79.9023 100.195 79.9023 106.832C79.9023 113.47 78.3326 119.206 75.1933 124.04C72.0539 128.875 67.5864 132.644 61.7907 135.348C56.0755 137.97 49.2736 139.281 41.3851 139.281H16.5119L29.19 126.867V160.422H0.694458ZM29.19 130.063L16.5119 116.911H39.5739C43.5182 116.911 46.4161 116.01 48.2675 114.207C50.1994 112.404 51.1653 109.946 51.1653 106.832C51.1653 103.718 50.1994 101.26 48.2675 99.4575C46.4161 97.6548 43.5182 96.7534 39.5739 96.7534H16.5119L29.19 83.6018V130.063Z" fill="#3D3D3D"/>
<path d="M73.6318 160.422L110.579 74.3833H138.592L175.539 160.422H146.078L118.79 88.1495H129.898L102.61 160.422H73.6318ZM95.6071 145.427L102.852 124.532H141.731L148.976 145.427H95.6071Z" fill="#3D3D3D"/>
<path d="M215.99 162.389C208.906 162.389 202.064 161.569 195.464 159.931C188.863 158.292 183.43 156.161 179.163 153.539L188.34 132.398C192.365 134.774 196.832 136.7 201.742 138.175C206.733 139.568 211.563 140.265 216.232 140.265C218.968 140.265 221.102 140.101 222.631 139.773C224.241 139.363 225.408 138.831 226.133 138.175C226.857 137.438 227.219 136.577 227.219 135.594C227.219 134.037 226.374 132.808 224.684 131.907C222.993 131.005 220.739 130.268 217.922 129.694C215.185 129.039 212.167 128.383 208.866 127.727C205.566 126.99 202.225 126.048 198.844 124.9C195.544 123.753 192.485 122.237 189.668 120.353C186.931 118.468 184.717 116.01 183.027 112.978C181.337 109.864 180.491 106.013 180.491 101.424C180.491 96.0979 181.94 91.2633 184.838 86.9204C187.817 82.4955 192.204 78.972 197.999 76.3499C203.875 73.7278 211.16 72.4167 219.854 72.4167C225.569 72.4167 231.204 73.0313 236.758 74.2604C242.312 75.4895 247.303 77.3742 251.73 79.9144L243.157 100.932C238.972 98.802 234.907 97.2041 230.962 96.1389C227.099 95.0736 223.315 94.541 219.612 94.541C216.876 94.541 214.702 94.7868 213.092 95.2785C211.482 95.7701 210.315 96.4257 209.591 97.2451C208.947 98.0645 208.625 98.9659 208.625 99.9492C208.625 101.424 209.47 102.612 211.16 103.514C212.851 104.333 215.064 105.03 217.801 105.603C220.619 106.177 223.677 106.791 226.978 107.447C230.359 108.102 233.699 109.004 236.999 110.151C240.3 111.298 243.318 112.814 246.055 114.699C248.873 116.583 251.126 119.042 252.817 122.073C254.507 125.105 255.353 128.875 255.353 133.381C255.353 138.626 253.863 143.46 250.885 147.885C247.987 152.228 243.64 155.752 237.845 158.456C232.049 161.078 224.764 162.389 215.99 162.389Z" fill="#3D3D3D"/>
<path d="M297.54 162.389C290.457 162.389 283.615 161.569 277.014 159.931C270.413 158.292 264.98 156.161 260.714 153.539L269.89 132.398C273.915 134.774 278.382 136.7 283.293 138.175C288.283 139.568 293.113 140.265 297.782 140.265C300.519 140.265 302.652 140.101 304.181 139.773C305.791 139.363 306.958 138.831 307.683 138.175C308.407 137.438 308.77 136.577 308.77 135.594C308.77 134.037 307.924 132.808 306.234 131.907C304.544 131.005 302.29 130.268 299.472 129.694C296.735 129.039 293.717 128.383 290.417 127.727C287.116 126.99 283.776 126.048 280.395 124.9C277.095 123.753 274.036 122.237 271.218 120.353C268.481 118.468 266.268 116.01 264.577 112.978C262.887 109.864 262.042 106.013 262.042 101.424C262.042 96.0979 263.491 91.2633 266.389 86.9204C269.367 82.4955 273.754 78.972 279.55 76.3499C285.426 73.7278 292.711 72.4167 301.404 72.4167C307.119 72.4167 312.754 73.0313 318.308 74.2604C323.863 75.4895 328.853 77.3742 333.281 79.9144L324.708 100.932C320.522 98.802 316.457 97.2041 312.513 96.1389C308.649 95.0736 304.866 94.541 301.163 94.541C298.426 94.541 296.253 94.7868 294.643 95.2785C293.033 95.7701 291.866 96.4257 291.141 97.2451C290.497 98.0645 290.175 98.9659 290.175 99.9492C290.175 101.424 291.02 102.612 292.711 103.514C294.401 104.333 296.615 105.03 299.352 105.603C302.169 106.177 305.228 106.791 308.528 107.447C311.909 108.102 315.25 109.004 318.55 110.151C321.85 111.298 324.869 112.814 327.606 114.699C330.423 116.583 332.677 119.042 334.367 122.073C336.058 125.105 336.903 128.875 336.903 133.381C336.903 138.626 335.414 143.46 332.435 147.885C329.537 152.228 325.191 155.752 319.395 158.456C313.599 161.078 306.314 162.389 297.54 162.389Z" fill="#3D3D3D"/>
<path d="M3.85886 191.373H16.5516V194.273H3.85886V191.373ZM4.21046 203.814H0.694458V180.214H18.0635V183.147H4.21046V203.814Z" fill="#3D3D3D"/>
<path d="M39.7138 203.814V180.214H43.2298V203.814H39.7138Z" fill="#3D3D3D"/>
<path d="M74.4719 204.083C72.5967 204.083 70.8036 203.814 69.0924 203.274C67.3813 202.712 66.0335 201.993 65.049 201.117L66.35 198.487C67.2876 199.274 68.483 199.925 69.9363 200.442C71.3896 200.959 72.9014 201.218 74.4719 201.218C75.9018 201.218 77.062 201.06 77.9528 200.746C78.8435 200.431 79.4998 200.004 79.9217 199.465C80.3436 198.903 80.5546 198.273 80.5546 197.577C80.5546 196.768 80.2733 196.116 79.7108 195.621C79.1716 195.127 78.4567 194.733 77.566 194.441C76.6987 194.127 75.7377 193.857 74.6829 193.632C73.6281 193.407 72.5616 193.149 71.4833 192.857C70.4285 192.542 69.4558 192.149 68.565 191.677C67.6978 191.205 66.9946 190.575 66.4554 189.789C65.9163 188.98 65.6468 187.946 65.6468 186.687C65.6468 185.473 65.9749 184.361 66.6312 183.35C67.311 182.316 68.3424 181.495 69.7253 180.888C71.1317 180.259 72.9132 179.944 75.0696 179.944C76.4995 179.944 77.9176 180.124 79.324 180.484C80.7304 180.843 81.9493 181.36 82.9806 182.035L81.8204 184.732C80.7656 184.058 79.6522 183.574 78.4802 183.282C77.3082 182.967 76.1713 182.81 75.0696 182.81C73.6867 182.81 72.5499 182.979 71.6591 183.316C70.7684 183.653 70.1121 184.102 69.6902 184.664C69.2917 185.226 69.0924 185.856 69.0924 186.552C69.0924 187.384 69.362 188.047 69.9011 188.541C70.4637 189.036 71.1786 189.429 72.0459 189.721C72.9366 190.014 73.9094 190.283 74.9642 190.531C76.019 190.755 77.0738 191.014 78.1286 191.306C79.2068 191.598 80.1796 191.98 81.0468 192.452C81.9376 192.924 82.6525 193.553 83.1916 194.34C83.7307 195.127 84.0003 196.138 84.0003 197.374C84.0003 198.566 83.6604 199.678 82.9806 200.712C82.3009 201.723 81.2461 202.544 79.8162 203.173C78.4098 203.78 76.6284 204.083 74.4719 204.083Z" fill="#3D3D3D"/>
<path d="M105.838 203.814V180.214H109.354V203.814H105.838Z" fill="#3D3D3D"/>
<path d="M144.534 204.083C142.659 204.083 140.912 203.78 139.295 203.173C137.701 202.566 136.318 201.723 135.146 200.645C133.974 199.543 133.06 198.262 132.404 196.801C131.747 195.34 131.419 193.745 131.419 192.014C131.419 190.283 131.747 188.688 132.404 187.227C133.06 185.766 133.974 184.496 135.146 183.417C136.318 182.316 137.701 181.462 139.295 180.855C140.889 180.248 142.635 179.944 144.534 179.944C146.409 179.944 148.132 180.248 149.702 180.855C151.296 181.439 152.679 182.282 153.851 183.383C155.047 184.462 155.961 185.732 156.594 187.193C157.25 188.654 157.578 190.261 157.578 192.014C157.578 193.767 157.25 195.374 156.594 196.835C155.961 198.296 155.047 199.577 153.851 200.678C152.679 201.757 151.296 202.6 149.702 203.207C148.132 203.791 146.409 204.083 144.534 204.083ZM144.534 201.083C145.893 201.083 147.148 200.858 148.296 200.409C149.468 199.959 150.476 199.33 151.32 198.521C152.187 197.689 152.855 196.723 153.324 195.621C153.816 194.52 154.062 193.317 154.062 192.014C154.062 190.71 153.816 189.508 153.324 188.407C152.855 187.305 152.187 186.35 151.32 185.541C150.476 184.709 149.468 184.069 148.296 183.619C147.148 183.17 145.893 182.945 144.534 182.945C143.151 182.945 141.874 183.17 140.702 183.619C139.553 184.069 138.545 184.709 137.678 185.541C136.81 186.35 136.131 187.305 135.638 188.407C135.17 189.508 134.935 190.71 134.935 192.014C134.935 193.317 135.17 194.52 135.638 195.621C136.131 196.723 136.81 197.689 137.678 198.521C138.545 199.33 139.553 199.959 140.702 200.409C141.874 200.858 143.151 201.083 144.534 201.083Z" fill="#3D3D3D"/>
<path d="M184.197 203.814V183.147H175.759V180.214H196.116V183.147H187.678V203.814H184.197Z" fill="#3D3D3D"/>
<path d="M219.846 190.396H232.504V193.261H219.846V190.396ZM220.163 200.881H234.508V203.814H216.647V180.214H234.016V183.147H220.163V200.881Z" fill="#3D3D3D"/>
<path d="M256.902 203.814V180.214H266.501C268.657 180.214 270.497 180.54 272.021 181.192C273.545 181.844 274.717 182.788 275.537 184.024C276.357 185.26 276.768 186.732 276.768 188.44C276.768 190.148 276.357 191.621 275.537 192.857C274.717 194.07 273.545 195.003 272.021 195.655C270.497 196.307 268.657 196.633 266.501 196.633H258.836L260.418 195.082V203.814H256.902ZM273.357 203.814L267.099 195.25H270.861L277.19 203.814H273.357ZM260.418 195.419L258.836 193.767H266.395C268.646 193.767 270.345 193.306 271.494 192.385C272.666 191.441 273.252 190.126 273.252 188.44C273.252 186.755 272.666 185.451 271.494 184.529C270.345 183.608 268.646 183.147 266.395 183.147H258.836L260.418 181.462V195.419Z" fill="#3D3D3D"/>
<path d="M295.422 203.814L306.568 180.214H310.049L321.23 203.814H317.538L307.588 182.102H308.994L299.044 203.814H295.422ZM300.169 197.914L301.118 195.217H314.971L315.991 197.914H300.169Z" fill="#3D3D3D"/>
<path d="M341.602 203.814V180.214H351.201C353.357 180.214 355.197 180.54 356.721 181.192C358.245 181.844 359.417 182.788 360.237 184.024C361.057 185.26 361.468 186.732 361.468 188.44C361.468 190.148 361.057 191.621 360.237 192.857C359.417 194.07 358.245 195.014 356.721 195.689C355.197 196.34 353.357 196.666 351.201 196.666H343.536L345.118 195.082V203.814H341.602ZM345.118 195.419L343.536 193.733H351.095C353.346 193.733 355.045 193.273 356.194 192.351C357.366 191.43 357.952 190.126 357.952 188.44C357.952 186.755 357.366 185.451 356.194 184.529C355.045 183.608 353.346 183.147 351.095 183.147H343.536L345.118 181.462V195.419Z" fill="#3D3D3D"/>
<path d="M383.334 203.814V180.214H386.85V203.814H383.334Z" fill="#3D3D3D"/>
<path d="M407.193 203.814L418.338 180.214H421.819L433 203.814H429.308L419.358 182.102H420.764L410.814 203.814H407.193ZM411.939 197.914L412.889 195.217H426.742L427.761 197.914H411.939Z" fill="#3D3D3D"/>
</svg>
